<?xml version="1.0" standalone="no"?>
<!DOCTYPE svg PUBLIC "-//W3C//DTD SVG 20010904//EN"
 "http://www.w3.org/TR/2001/REC-SVG-20010904/DTD/svg10.dtd">
<svg version="1.0" xmlns="http://www.w3.org/2000/svg"
 width="16.000000pt" height="16.000000pt" viewBox="0 0 16.000000 16.000000"
 preserveAspectRatio="xMidYMid meet">
<metadata>
Created by potrace 1.11, written by Peter Selinger 2001-2013
</metadata>
<g transform="translate(0.000000,16.000000) scale(0.003125,-0.003125)"
fill="#000000" stroke="none">
<path d="M3899 5105 c-4 -3 -27 -7 -124 -21 -27 -3 -59 -8 -70 -10 -10 -2 -37
-6 -60 -9 -22 -4 -137 -22 -255 -41 -213 -35 -246 -40 -285 -48 -26 -5 -117
-20 -130 -21 -9 -1 -121 -20 -185 -31 -14 -2 -41 -7 -60 -10 -19 -3 -71 -12
-115 -19 -44 -8 -98 -17 -120 -20 -22 -4 -47 -8 -55 -10 -8 -3 -33 -7 -55 -10
-22 -3 -49 -7 -60 -9 -11 -2 -40 -7 -65 -12 -25 -4 -47 -8 -50 -9 -3 -1 -32
-5 -65 -10 -33 -5 -62 -9 -65 -10 -21 -5 -100 -18 -120 -21 -30 -4 -58 -8
-175 -29 -49 -9 -101 -18 -115 -20 -14 -2 -38 -6 -55 -9 -16 -3 -43 -7 -60
-10 -16 -3 -46 -8 -65 -11 -31 -5 -405 -69 -470 -81 -14 -2 -41 -7 -60 -9 -19
-3 -55 -10 -80 -15 -25 -5 -79 -14 -120 -21 -41 -6 -82 -13 -90 -14 -265 -49
-365 -70 -410 -88 -30 -12 -57 -25 -58 -29 -2 -5 -10 -8 -17 -8 -7 0 -35 -20
-63 -45 -49 -44 -83 -99 -99 -160 -4 -16 -8 -867 -9 -1890 l-1 -1860 28 -75
c47 -120 120 -221 202 -276 23 -16 44 -32 47 -35 8 -9 111 -55 155 -70 32 -11
429 -13 2065 -15 1114 -1 2060 2 2103 6 169 18 357 154 436 314 18 38 34 74
36 80 1 6 7 24 13 39 9 21 12 415 12 1516 0 1461 0 1489 -20 1546 -29 84 -81
172 -139 235 -28 30 -51 51 -51 48 0 -4 -12 5 -27 19 -38 35 -161 92 -209 97
-22 3 -39 5 -39 6 0 8 -328 11 -1701 14 -864 2 -1576 6 -1581 9 -6 4 -13 4
-17 0 -9 -9 -256 -9 -256 0 0 4 -8 4 -17 -2 -10 -5 -26 -5 -40 0 -12 4 -25 4
-28 0 -6 -10 -24 -9 -42 2 -6 4 -14 4 -17 -1 -3 -5 -28 -6 -56 -2 -31 4 -50 3
-50 -4 0 -6 -4 -6 -11 1 -7 7 -21 8 -39 3 -16 -5 -31 -6 -33 -3 -3 2 -88 6
-188 7 -180 3 -185 4 -239 32 -64 34 -102 84 -98 128 3 30 3 30 69 32 37 0 71
4 77 8 6 3 13 2 17 -4 4 -6 11 -7 17 -4 10 7 153 14 315 18 40 0 73 5 73 9 0
4 8 3 19 -2 10 -6 21 -7 25 -4 3 3 50 8 103 9 134 5 328 13 328 14 0 0 52 3
115 6 63 2 165 7 225 9 61 3 155 7 210 10 55 2 159 7 230 10 72 4 173 8 225
10 52 2 95 4 95 5 0 1 41 2 90 4 50 1 96 5 103 10 7 4 19 3 26 -3 7 -6 16 -8
19 -4 4 3 48 7 99 9 154 6 326 13 458 20 69 3 152 7 185 7 33 1 63 6 67 12 5
7 8 6 8 -1 0 -7 13 -10 33 -8 35 4 203 13 362 19 55 2 100 4 100 5 0 0 59 3
130 6 185 7 199 8 213 17 6 5 12 4 12 -1 0 -9 54 -7 70 3 5 3 11 1 15 -5 4 -6
12 -7 18 -3 6 4 41 8 77 9 36 1 70 2 76 3 12 1 11 407 -1 484 -22 144 -134
235 -350 284 -25 5 -261 13 -266 8z m571 -2768 c84 -36 175 -120 207 -192 9
-22 20 -42 23 -45 14 -13 20 -160 9 -211 -13 -58 -53 -138 -87 -175 -31 -34
-99 -87 -116 -91 -6 -1 -30 -9 -54 -18 -24 -8 -48 -13 -53 -10 -5 4 -9 2 -9
-3 0 -8 -111 -7 -150 2 -47 10 -140 55 -140 67 0 5 -5 9 -11 9 -19 0 -77 72
-109 136 -28 55 -32 72 -34 163 -2 55 1 101 6 101 4 0 8 9 8 19 0 11 5 23 10
26 6 4 8 10 5 14 -6 11 48 88 92 129 39 37 115 78 170 92 51 13 190 5 233 -13z"/>
</g>
</svg>
